<?xml version="1.0" encoding="utf-8"?>
<!-- Generator: Adobe Illustrator 28.3.0, SVG Export Plug-In . SVG Version: 6.00 Build 0)  -->
<svg version="1.1" id="Layer_1" xmlns="http://www.w3.org/2000/svg" xmlns:xlink="http://www.w3.org/1999/xlink" x="0px" y="0px"
	 viewBox="0 0 165 26" style="enable-background:new 0 0 165 26;" xml:space="preserve">
<style type="text/css">
	.st0{fill-rule:evenodd;clip-rule:evenodd;fill:#F68C1E;}
</style>
<g>
	<path class="st0" d="M140.6,16.9h-1.9V9.3c1.8,0,2.9-0.2,4,1C144,11.7,143.9,16.9,140.6,16.9 M137.7,18c2.8,0,5.4,0.5,6.6-2.6
		c0.7-1.9,0.5-5-1-6.3c-1.5-1.3-3.5-1-5.6-1V18z"/>
	<path class="st0" d="M100.1,12.4h-0.7V9.2l0.9,0c1.2,0.1,1.4,0.6,1.4,1.9C101.7,12.1,100.9,12.4,100.1,12.4 M98.3,18h1.1v-4.6
		c0.3,0.1,0.4,0.2,1,1.1c0.3,0.4,0.5,0.8,0.8,1.2c0.4,0.6,1.2,1.7,1.6,2.4h1.4c-0.6-1-2.9-4.1-3.2-4.7c1.2,0,2.1-1,2.1-2.5
		c0-3-2.7-2.7-4.7-2.7V18z"/>
	<path class="st0" d="M112.9,14l1.4-3.3l1.4,3.3H112.9z M117.1,18h1.3l-4.2-9.8l-4.2,9.8h1.3l1-2.7h3.8L117.1,18z"/>
	<polygon class="st0" points="125.6,8.1 126.8,8.1 126.8,16.6 129.7,16.6 129.7,18 126.8,18 126.8,18 125.6,18 	"/>
	<polygon class="st0" points="86.2,8.2 86.2,8.2 89.7,8.2 89.7,9.6 86.2,9.6 86.2,11.8 89.7,11.8 89.7,13.2 86.2,13.2 86.2,16.7 
		89.7,16.7 89.7,18.1 86.2,18.1 86.2,18.1 86.2,18.1 85,18.1 85,18.1 85,8.2 85,8.2 86.2,8.2 	"/>
	<polygon class="st0" points="71.8,15.5 75.4,7.9 76.6,17.9 75.3,18.1 74.7,11.6 71.8,17.9 69.1,11.8 68.5,18.1 67.2,17.9 68.4,7.9 
			"/>
	<polygon class="st0" points="55.8,8.2 55.8,8.2 59.3,8.2 59.3,9.6 55.8,9.6 55.8,11.8 59.3,11.8 59.3,13.2 55.8,13.2 55.8,16.7 
		59.3,16.7 59.3,18.1 55.8,18.1 55.8,18.1 55.8,18.1 54.6,18.1 54.6,18.1 54.6,8.2 54.6,8.2 55.8,8.2 	"/>
	<path class="st0" d="M30.8,12c0.5-0.1,1.1-0.1,1.6,0c0.1-0.3,0.1-0.6,0.2-0.9c0-0.2,0-0.4,0-0.5c0-0.9-0.4-1.9-0.9-2.6
		c-0.3,0.3-0.5,0.7-0.7,1.2C30.6,10,30.5,11,30.8,12 M28.8,23.2L28.8,23.2c-1.4-0.8-2.4-2.2-2.8-3.7c-0.3-1.1-0.2-2.3,0.1-3.4
		c-0.2-0.1-0.4-0.2-0.6-0.3c-0.9-0.5-1.6-1.2-2-2.1c-0.6-1.2-0.5-2.7,0.2-3.8c0.5-0.8,1.2-1.4,2.1-1.6l0,0l0,0
		C26.6,8,27.3,8.1,28,8.5c0.6,0.4,1,1,1.1,1.6c0.2,0.7,0,1.3-0.5,1.8c-0.4,0.4-1,0.6-1.6,0.4c-0.5-0.2-0.7-0.5-0.8-1L26.1,11
		l0.7-0.2l0.1,0.4c0,0.2,0.2,0.4,0.4,0.5c0.3,0.1,0.6,0,0.8-0.2c0.3-0.3,0.4-0.7,0.3-1.1c-0.1-0.5-0.4-0.9-0.8-1.2
		c-0.5-0.3-1-0.4-1.5-0.2c-0.7,0.2-1.3,0.7-1.7,1.3c-0.6,0.9-0.7,2.1-0.2,3.1c0.4,0.7,1,1.4,1.7,1.8c0.2,0.1,0.3,0.2,0.5,0.2
		c0.6-1.2,1.5-2.3,2.7-2.9c0.3-0.1,0.6-0.3,0.9-0.3c-0.3-1.1-0.2-2.2,0.2-3.3c0.2-0.6,0.5-1.1,0.9-1.5c-0.7-0.8-1.6-1.4-2.6-1.6
		c-1.4-0.4-2.9-0.2-4.1,0.5c-2,1.2-3.2,3.6-3.4,5.9c-0.3,3.5,1.1,6.6,3.6,9C25.5,21.7,27.5,22.8,28.8,23.2z M30.3,12.8
		c-0.3,0.1-0.6,0.2-0.9,0.3c-0.2,0.1-0.3,0.2-0.5,0.3c-0.8,0.5-1.4,1.3-1.8,2.1c0.5,0.1,0.9,0.1,1.4,0c1-0.2,1.9-0.6,2.6-1.3
		C30.8,13.8,30.5,13.3,30.3,12.8z M32.1,12.7c-0.4,0-0.7,0-1.1,0c0.1,0.3,0.3,0.7,0.5,1C31.8,13.3,32,13,32.1,12.7z M30.8,19.8
		c0.5,0.5,1.2,0.8,2,0.8c1.1,0,2.1-0.5,2.8-1.4c0.5-0.7,0.7-1.5,0.7-2.4c0-0.2,0-0.4,0-0.6c-1.3,0.1-2.7-0.1-3.8-0.9
		c-0.3-0.2-0.5-0.4-0.8-0.6c-0.8,0.8-1.8,1.3-3,1.5c-0.6,0.1-1.2,0.1-1.8-0.1c-0.3,1-0.4,2.1-0.1,3c0.4,1.4,1.2,2.6,2.5,3.3
		c2.1,1.2,4.7,1,6.8,0c3.2-1.5,5.2-4.3,6-7.6c0.2-1,0.2-3.3-0.2-4.6l0,0c0,1.6-0.7,3.2-1.8,4.3c-0.8,0.8-1.9,1.4-3.1,1.6
		c0,0.2,0.1,0.4,0.1,0.7c0,1-0.3,2-0.8,2.8c-0.8,1.1-2.1,1.7-3.4,1.7c-0.9,0-1.8-0.4-2.4-1l0,0l0,0c-0.5-0.5-0.8-1.2-0.8-2
		c0-0.7,0.4-1.3,0.8-1.8c0.5-0.5,1.2-0.7,1.8-0.5c0.5,0.2,1,0.6,1.1,1.2c0.1,0.5-0.1,0.9-0.4,1.2l-0.3,0.3l-0.5-0.5l0.3-0.3
		c0.2-0.1,0.3-0.3,0.2-0.6c-0.1-0.3-0.3-0.5-0.6-0.6c-0.4-0.1-0.8,0-1.1,0.3c-0.3,0.3-0.6,0.8-0.6,1.3C30.2,19,30.5,19.4,30.8,19.8z
		 M32.9,12.8c-0.2,0.5-0.5,1-0.8,1.4c0.2,0.2,0.4,0.4,0.7,0.6c0.1,0.1,0.3,0.2,0.5,0.3c0.8,0.4,1.8,0.6,2.8,0.5
		c-0.2-0.4-0.4-0.8-0.7-1.2C34.7,13.6,33.8,13.1,32.9,12.8z M37.9,10.2c0.2-0.7,0.1-1.4-0.3-2.1c-0.5-1-1.5-1.6-2.6-1.7
		c-0.8-0.1-1.7,0.2-2.4,0.6c-0.2,0.1-0.3,0.2-0.5,0.3c0.8,1.1,1.2,2.4,1.1,3.8c0,0.3-0.1,0.7-0.2,1c1.1,0.3,2,0.9,2.8,1.8
		c0.4,0.5,0.7,1,0.8,1.6c1-0.2,2-0.7,2.7-1.4c1-1,1.6-2.4,1.6-3.8c0-2.4-1.5-4.6-3.4-5.9C34.8,2.4,31.3,2,28,3
		c-1,0.3-2.9,1.5-3.9,2.5l0,0c1.4-0.8,3.1-1,4.7-0.6c1.1,0.3,2.1,1,2.9,1.8c0.2-0.1,0.4-0.3,0.5-0.4c0.8-0.5,1.8-0.8,2.8-0.7
		c1.3,0.1,2.5,0.9,3.2,2.1c0.4,0.8,0.6,1.7,0.4,2.6l0,0l0,0c-0.2,0.7-0.7,1.3-1.3,1.7c-0.6,0.3-1.3,0.3-1.9,0.2
		c-0.7-0.2-1.2-0.7-1.3-1.3c-0.1-0.6,0-1.2,0.4-1.6C34.8,9,35.3,9,35.7,9.1l0.4,0.1l-0.2,0.7l-0.4-0.1c-0.2-0.1-0.4-0.1-0.6,0.1
		c-0.2,0.2-0.3,0.6-0.2,0.8c0.1,0.4,0.4,0.7,0.8,0.8c0.5,0.1,1,0.1,1.4-0.1C37.4,11.2,37.7,10.8,37.9,10.2z M20.3,12.9
		c0,1.1,0.1,2.2,0.5,3.3c0.4,1.2,0.8,2.2,1.5,3.3c0.4,0.5,0.8,1.1,1.2,1.5c0.1,0.1,0.3,0.3,0.5,0.5c0.1,0.1,0.1,0.1,0.2,0.1
		c1.5,1.3,3,2,4.9,2.5c1.3,0.3,2.1,0.3,3.5,0.2c0.9,0,2.5-0.5,3.4-0.9c0.8-0.4,1.1-0.5,1.8-1l1.7-1.4c0.1-0.1,0.1-0.1,0.2-0.2
		c0.1-0.1,0.2-0.2,0.3-0.4l0.5-0.6c0.7-0.8,1.2-1.9,1.6-2.8c0.3-0.7,0.4-1.3,0.6-2.1c0.2-0.8,0.2-1.6,0.2-2.5
		c-0.1-1.7-0.6-3.4-1.3-4.9L41,6.8c-0.1-0.1-0.2-0.3-0.3-0.4c-0.1-0.1-0.2-0.2-0.3-0.4l-0.3-0.4c-0.7-0.7-1-1.1-1.8-1.7l-0.4-0.3
		c-0.3-0.2-0.5-0.4-0.8-0.5C36.9,3,36.7,3,36.6,2.9C35.8,2.5,35,2.2,34.1,2c-2.4-0.5-4.8-0.3-7.1,0.7c-0.6,0.3-1.2,0.6-1.8,1
		C25.1,3.8,25,3.9,24.8,4c-0.5,0.4-1,0.8-1.4,1.3c-0.1,0.1-0.2,0.2-0.3,0.3c-0.8,0.9-1.6,2.2-2,3.4c-0.1,0.2-0.1,0.3-0.2,0.5
		c-0.2,0.8-0.4,1.3-0.5,2.2l-0.1,0.9c0,0.1,0,0.1,0,0.1C20.3,12.8,20.3,12.8,20.3,12.9z"/>
</g>
</svg>
