<svg width="117" height="89" viewBox="0 0 117 89" fill="none" xmlns="http://www.w3.org/2000/svg">
  <path fill-rule="evenodd" clip-rule="evenodd" d="M61.8851 31.6116C61.2663 33.2031 60.4069 34.6901 59.3367 36.0206C60.0035 36.7209 60.7358 37.3557 61.5235 37.9165C61.9657 38.2111 62.425 38.4791 62.8991 38.7189C65.4841 39.9572 68.3699 40.4285 71.2145 40.0769C70.7503 38.6345 70.0106 37.2959 69.0364 36.1353C67.1857 33.9224 64.6826 32.3514 61.8851 31.6469M35.4311 11.9034C35.775 11.6565 36.1366 11.4273 36.4981 11.2068C38.4778 10.0241 40.6735 9.24801 42.9568 8.92399C45.24 8.59997 47.565 8.73453 49.7956 9.31978C53.1172 10.228 56.1019 12.085 58.3843 14.6635C58.8688 14.2693 59.3784 13.907 59.9098 13.5789C62.3107 12.067 65.1178 11.3283 67.9518 11.4625C69.8356 11.5939 71.6564 12.1955 73.2477 13.2122C74.839 14.2289 76.15 15.6283 77.0608 17.2824C78.3188 19.5345 78.7108 22.1687 78.1631 24.6895C77.9283 25.7147 77.4741 26.6768 76.8317 27.5095C76.1893 28.3422 75.3739 29.0257 74.4419 29.513C72.7434 30.3666 70.7874 30.5553 68.9571 30.042C68.0544 29.8225 67.2282 29.3621 66.5666 28.7098C65.905 28.0576 65.4329 27.238 65.2006 26.3385C64.9954 25.5845 64.9942 24.7896 65.1971 24.035C65.4001 23.2804 65.8 22.5934 66.3558 22.0441C66.8349 21.6358 67.4104 21.3566 68.0277 21.2332C68.645 21.1097 69.2836 21.146 69.883 21.3387L70.7648 21.5768L70.2886 23.3404L69.4068 23.1023C69.0954 22.9861 68.759 22.9535 68.431 23.0077C68.103 23.0618 67.795 23.2008 67.5374 23.4109C67.2143 23.7498 66.9869 24.1683 66.8785 24.6238C66.77 25.0792 66.7844 25.5553 66.9201 26.0034C67.077 26.5941 67.3924 27.1306 67.8323 27.5549C68.2721 27.9792 68.8197 28.2752 69.4156 28.4107C70.8145 28.8061 72.3103 28.6678 73.613 28.0227C74.3156 27.6509 74.9293 27.1312 75.4119 26.4995C75.8944 25.8677 76.2344 25.1389 76.4083 24.3633C76.8599 22.2606 76.5274 20.0654 75.4736 18.1907C74.7214 16.7892 73.6283 15.5998 72.2952 14.7321C70.9621 13.8645 69.432 13.3466 67.846 13.2261C65.3797 13.1087 62.9365 13.7488 60.8445 15.0603C60.3812 15.3495 59.9364 15.6676 59.513 16.0126C61.9278 19.0965 63.1517 22.9466 62.9609 26.8587C62.8908 27.8907 62.7165 28.9129 62.4406 29.9098C65.5458 30.7256 68.3198 32.4886 70.3768 34.9537C71.5477 36.3673 72.4232 38.0015 72.9516 39.7595C75.9969 39.148 78.7978 37.6618 81.0113 35.4827C82.4703 34.0148 83.6218 32.2706 84.3986 30.3522C85.1753 28.4339 85.5616 26.3798 85.5349 24.3103C85.3938 17.4059 80.8966 10.9687 75.3237 7.17701C66.9289 1.48059 56.9029 0.47534 47.353 3.64981C44.2667 4.70797 37.9178 8.81715 35.4223 11.8682L35.4311 11.9034ZM60.6946 29.5394C60.9524 28.6175 61.1178 27.6723 61.1884 26.7177C61.2237 26.1892 61.2237 25.6589 61.1884 25.1304C60.965 22.2739 59.9277 19.5412 58.1991 17.256C57.1867 18.3818 56.3968 19.6894 55.8712 21.1094C54.8838 23.8196 54.7728 26.7715 55.5537 29.5482C57.2541 29.2818 58.9855 29.2818 60.6858 29.5482L60.6946 29.5394ZM58.1462 34.6627C58.9435 33.6177 59.6015 32.4735 60.1038 31.2589C58.8012 31.0914 57.4825 31.0914 56.1798 31.2589C56.6784 32.4781 57.3367 33.6256 58.1374 34.6715L58.1462 34.6627ZM41.9917 20.6068C39.9388 21.2641 38.1978 22.6507 37.0977 24.5043C36.2746 25.8612 35.8053 27.403 35.7329 28.9883C35.6605 30.5737 35.9873 32.1518 36.6833 33.578C37.8129 35.7714 39.5849 37.5679 41.7624 38.7277C42.2408 38.9863 42.7357 39.2131 43.2438 39.4067C44.712 35.7721 47.438 32.7864 50.9243 30.9944C51.8427 30.5443 52.8024 30.184 53.7902 29.9186C52.9352 26.8126 53.0708 23.5173 54.1781 20.4922C54.822 18.7733 55.8057 17.2018 57.0704 15.8715C55.0315 13.542 52.3604 11.8542 49.3812 11.0128C47.3797 10.4883 45.2939 10.3679 43.2454 10.6586C41.1969 10.9493 39.2269 11.6453 37.4504 12.7059C31.5424 16.286 28.218 23.4021 27.7506 30.1214C27.0099 40.2356 31.1544 49.424 38.6938 56.0904C41.1452 58.2596 47.9262 61.7162 51.7708 62.3335C51.3828 62.1571 51.0037 61.972 50.6333 61.7691C48.6174 60.6452 46.846 59.1304 45.4228 57.3135C43.9995 55.4965 42.9529 53.4139 42.3444 51.1876C41.4751 47.8577 41.5915 44.3471 42.6795 41.0821C39.4048 39.8688 36.6965 37.4841 35.0784 34.3893C34.2517 32.6924 33.8637 30.8153 33.9499 28.9298C34.0362 27.0442 34.594 25.2104 35.5722 23.5961C36.8881 21.363 38.9778 19.6906 41.445 18.8961C42.4507 18.5876 43.5113 18.5004 44.5539 18.6405C45.5966 18.7805 46.5966 19.1445 47.4853 19.7074C49.0706 20.7543 50.2087 22.3546 50.6774 24.1957C50.9393 25.0834 50.9571 26.0252 50.729 26.9221C50.5008 27.819 50.0353 28.6378 49.3812 29.2925C48.8253 29.8582 48.1284 30.2651 47.3626 30.4713C46.5968 30.6775 45.7898 30.6754 45.0251 30.4653C44.4277 30.2564 43.8944 29.8966 43.4772 29.4206C43.06 28.9447 42.7731 28.369 42.6442 27.7494L42.4238 26.8676L44.1874 26.4178L44.4166 27.2996C44.4733 27.6263 44.6135 27.9328 44.8237 28.1893C45.0338 28.4458 45.3067 28.6436 45.6159 28.7634C46.0713 28.8694 46.5465 28.8553 46.9947 28.7223C47.443 28.5894 47.8491 28.3422 48.1731 28.0051C48.6046 27.5721 48.9099 27.0297 49.0559 26.4361C49.202 25.8425 49.1833 25.2204 49.002 24.6366C48.6507 23.2115 47.7754 21.9711 46.5506 21.1623C45.8767 20.7441 45.1197 20.4777 44.3324 20.3818C43.5451 20.2858 42.7463 20.3626 41.9917 20.6068ZM56.9382 36.0471C55.8669 34.7157 55.0046 33.229 54.381 31.6381C53.47 31.8794 52.5842 32.2072 51.7356 32.6169C51.2589 32.8507 50.7966 33.1127 50.3511 33.4017C47.9737 35.013 46.1072 37.2711 44.9722 39.9094C46.4514 40.2298 47.9787 40.2597 49.4693 39.9975C52.3137 39.5026 54.9283 38.1197 56.9382 36.0471ZM55.9946 52.281C57.5848 53.7312 59.6537 54.5443 61.8057 54.5648C63.3923 54.6014 64.9627 54.2386 66.3726 53.5098C67.7824 52.781 68.9865 51.7095 69.8742 50.3939C71.2145 48.3209 71.8856 45.886 71.7965 43.4189C71.7794 42.8752 71.7263 42.3332 71.6378 41.7964C67.7582 42.3431 63.8115 41.4762 60.5183 39.3538C59.661 38.7761 58.8635 38.1144 58.1374 37.3786C55.8817 39.6878 52.9576 41.2301 49.778 41.7876C47.9693 42.1017 46.1158 42.0477 44.3285 41.6289C43.3426 44.57 43.2293 47.7337 44.0022 50.7378C44.5504 52.7332 45.4899 54.5996 46.7661 56.2284C48.0423 57.8573 49.6296 59.2162 51.4358 60.226C57.4849 63.4887 65.3153 62.8449 71.4261 59.9615C80.5527 55.5525 86.4167 47.3606 88.4448 37.4932C89.0974 34.2835 88.7006 26.6912 87.3161 23.0494C87.3161 23.4726 87.3779 23.9312 87.3867 24.3192C87.4224 26.6247 86.9978 28.9143 86.1378 31.0537C85.2778 33.1932 83.9996 35.1396 82.3781 36.779C79.9242 39.1991 76.8215 40.8561 73.4454 41.5495C73.5521 42.1644 73.6139 42.7862 73.6306 43.4101C73.7279 46.2464 72.9523 49.0443 71.4085 51.4256C70.3546 52.9926 68.9236 54.2693 67.2471 55.1384C65.5706 56.0074 63.7024 56.4409 61.8145 56.399C59.2213 56.368 56.7298 55.3859 54.813 53.639C54.0427 52.9232 53.4372 52.0486 53.0382 51.0757C52.6393 50.1028 52.4566 49.0548 52.5027 48.0043C52.6123 46.1082 53.427 44.3217 54.7866 42.9957C55.4276 42.3247 56.2379 41.8394 57.132 41.591C58.026 41.3427 58.9706 41.3405 59.8657 41.5848C60.6352 41.7836 61.3376 42.1843 61.9004 42.7455C62.4631 43.3066 62.8658 44.008 63.0667 44.7769C63.182 45.3978 63.1355 46.0379 62.9317 46.6356C62.7278 47.2333 62.3734 47.7685 61.9027 48.1894L61.2678 48.8155L59.9627 47.484L60.6065 46.8491C60.8594 46.6371 61.0533 46.3633 61.1691 46.0543C61.285 45.7453 61.319 45.4116 61.2678 45.0855C61.1348 44.6369 60.8851 44.2315 60.5443 43.9109C60.2035 43.5902 59.7838 43.3657 59.3278 43.2602C58.7375 43.1 58.1145 43.1049 57.5268 43.2744C56.939 43.4439 56.4091 43.7714 55.9946 44.2214C54.9549 45.2322 54.3266 46.5925 54.2311 48.0395C54.1997 48.8321 54.3412 49.6221 54.6458 50.3545C54.9503 51.0869 55.4106 51.7443 55.9946 52.281ZM25.7666 32.4758C25.799 39.1641 27.886 45.6808 31.7452 51.1435C32.8058 52.672 34.0106 54.0952 35.3429 55.3937C35.7574 55.7641 36.1454 56.2755 36.8596 56.8663C37.0889 57.0603 37.1771 57.078 37.4063 57.272C41.4724 60.7346 46.3463 63.1155 51.5768 64.1941C55.4656 65.0759 57.7494 64.8907 61.6117 64.7143C64.9239 64.3076 68.159 63.4194 71.2145 62.0778C73.0276 61.3131 74.7516 60.3521 76.3554 59.2119L81.2229 55.1557L81.6814 54.653L82.6426 53.5949L83.9212 52.0253C85.8362 49.5223 87.3586 46.7421 88.436 43.7805C89.1632 41.8097 89.7064 39.7758 90.0585 37.7049C90.4636 35.347 90.585 32.9491 90.4201 30.5623C90.1349 25.6635 88.7484 20.8921 86.3638 16.6034L84.8295 14.1079C84.5473 13.7111 84.2916 13.3231 83.9477 12.9087C83.6038 12.4943 83.4186 12.2209 83.0659 11.8241L82.1312 10.7307C80.5449 8.9999 78.7903 7.43138 76.8933 6.04831L75.7028 5.23705C74.9131 4.70472 74.0947 4.21606 73.2514 3.77327C72.7841 3.53518 72.449 3.38527 71.9728 3.14719C69.6992 2.01004 67.2859 1.17695 64.795 0.669336C57.9315 -0.736664 50.7983 0.085085 44.4343 3.01492C42.6864 3.84324 41.011 4.81662 39.4257 5.92485C38.9848 6.22466 38.6761 6.50684 38.2705 6.80665C36.7991 7.92686 35.4432 9.19116 34.2231 10.5807C33.9056 10.9335 33.6058 11.2245 33.3413 11.586C30.9441 14.5022 29.0569 17.8025 27.7595 21.3475C27.5919 21.8501 27.4244 22.2822 27.2921 22.7584C26.6479 24.8027 26.2078 26.9057 25.9782 29.0368L25.846 31.6822C25.846 31.8497 25.846 31.9203 25.846 32.0261C25.7984 32.1715 25.7717 32.3229 25.7666 32.4758Z" fill="#F78D1E"/>
  <path fill-rule="evenodd" clip-rule="evenodd" d="M110.568 87.4294H107.923V77.6415C110.383 77.6415 112.014 77.324 113.522 78.9377C115.286 80.8247 115.162 87.4294 110.533 87.4294M106.379 88.8844C110.233 88.8844 113.989 89.5281 115.656 85.5776C116.67 83.188 116.3 79.1581 114.271 77.5268C112.243 75.8955 109.404 76.1953 106.379 76.1953V88.8844Z" fill="#F78D1E"/>
  <path fill-rule="evenodd" clip-rule="evenodd" d="M58.4731 81.6718H57.4766V77.545L58.7729 77.5979C60.5365 77.7566 60.7216 78.3474 60.7216 80.0052C60.7216 81.2661 59.6899 81.6718 58.4731 81.6718ZM55.9688 88.8849H57.4854V82.8887C57.944 82.9856 58.0233 83.1885 58.8258 84.2643C59.2138 84.7845 59.5312 85.2431 59.9192 85.7545C60.7133 86.7407 61.4465 87.7743 62.1149 88.8496H64.1077C63.2259 87.5093 59.9897 83.5588 59.6194 82.8798C60.0258 82.8634 60.4248 82.7649 60.7921 82.5902C61.1595 82.4156 61.4878 82.1685 61.7572 81.8636C62.0266 81.5588 62.2315 81.2027 62.3596 80.8166C62.4878 80.4306 62.5365 80.0226 62.5029 79.6172C62.5029 75.799 58.7023 76.1605 55.9688 76.1605V88.8849Z" fill="#F78D1E"/>
  <path fill-rule="evenodd" clip-rule="evenodd" d="M74.8653 83.7698L76.7965 79.4842L78.7276 83.7698H74.8653ZM80.8527 88.9018H82.6163L76.7965 76.2568L70.9678 88.8842H72.7314L74.1511 85.4452H79.4418L80.8527 88.9018Z" fill="#F78D1E"/>
  <path fill-rule="evenodd" clip-rule="evenodd" d="M91.0894 76.1953H92.8353V87.0855H96.9269V88.8667H92.8353V88.8844H91.0894V76.1953Z" fill="#F78D1E"/>
  <path fill-rule="evenodd" clip-rule="evenodd" d="M40.7211 76.2568V76.2745H45.5533V78.0469H40.7211V80.9127H45.5533V82.6851H40.7211V87.147H45.5533V88.9283H40.7211V88.9371H38.9751V76.2568H40.7211Z" fill="#F78D1E"/>
  <path fill-rule="evenodd" clip-rule="evenodd" d="M22.3359 85.711L27.3974 75.9672L29.0463 88.7885L27.3092 89.0001L26.4627 80.72L22.3359 88.7444L18.5794 80.8523L17.6976 88.9384L15.9604 88.7268L17.6094 75.9142L22.3359 85.711Z" fill="#F78D1E"/>
  <path fill-rule="evenodd" clip-rule="evenodd" d="M1.75478 76.2579V76.2755H6.57822V78.0479H1.75478V80.9138H6.57822V82.6862H1.75478V87.1481H6.57822V88.9293H1.75478V88.9381H0V76.2579H1.75478Z" fill="#F78D1E"/>
</svg>